<svg width="20" height="20" viewBox="0 0 20 20" fill="none" xmlns="http://www.w3.org/2000/svg">
    <g clip-path="url(#clip0)">
        <path d="M16.4166 17.6883V19.3333C16.4166 19.5175 16.2675 19.6666 16.0833 19.6666H3.91665C3.73248 19.6666 3.58331 19.5175 3.58331 19.3333V17.6883C3.58331 15.97 4.98914 14.6071 6.70747 14.5904C7.27568 14.5843 7.79055 14.3046 8.10622 13.8541C8.4513 13.3611 8.41664 12.9171 8.41664 12.5833L8.42289 12.5679C6.92706 11.9487 5.87497 10.475 5.87497 8.7554C5.87497 8.7554 5.87497 8.70832 5.87497 8.62499C5.52256 8.62499 5.2211 8.46099 5.03248 8.20582C5.03248 8.2054 5.03206 8.2054 5.03206 8.20499C4.91964 8.06295 4.83331 7.83661 4.83331 7.60249V3.54166C4.83331 2.92042 5.33706 2.41667 5.95831 2.41667C6.46081 1.16117 7.67664 0.333339 9.03539 0.333339C11.0181 0.333339 12.2924 0.318506 12.3987 0.371672C12.4237 0.375464 12.6535 0.41638 12.6716 0.425422C13.0012 0.501172 13.3658 0.669213 13.3825 0.685838C14.4654 1.23084 15.2083 2.3525 15.2083 3.6475V7.54166C15.2083 8.13999 14.7233 8.62499 14.125 8.62499V8.7554C14.125 10.475 13.0729 11.9487 11.577 12.5679L11.5833 12.5833C11.5833 12.9076 11.5458 13.3572 11.8937 13.8541C12.2085 14.3034 12.7227 14.5843 13.2925 14.5904C15.0108 14.6071 16.4166 15.97 16.4166 17.6883Z" fill="#FFDFBA"/>
        <path d="M15.2083 3.6475V7.54166C15.2083 8.13999 14.7233 8.62499 14.125 8.62499V6.31791C14.125 6.14166 13.9879 5.99583 13.8121 5.98541C11.8584 5.86891 9.90212 5.27449 8.14041 4.16125C7.94875 4.04 7.69666 4.14 7.63833 4.35916C7.55125 4.68875 7.35541 5.11083 6.91666 5.37499C6.51312 5.61791 6.20075 5.56991 6.08333 5.61833C5.96042 5.66749 5.875 5.78749 5.875 5.92666V8.62499C5.52258 8.62499 5.22113 8.46099 5.0325 8.20582C5.0325 8.20541 5.03208 8.2054 5.03208 8.20499C4.95738 8.11061 4.88283 7.95545 4.85208 7.79666C4.82533 7.66041 4.83334 7.96786 4.83334 3.54167C4.83334 2.92042 5.33708 2.41667 5.95833 2.41667C6.45825 1.16763 7.6705 0.333339 9.03541 0.333339C11.0182 0.333339 12.2924 0.318506 12.3987 0.371672C12.722 0.420672 13.0407 0.522505 13.295 0.643338C13.2999 0.645796 13.3792 0.682588 13.3825 0.685838C14.4654 1.23084 15.2083 2.3525 15.2083 3.6475Z" fill="#42434D"/>
        <path d="M16.4166 17.6883V19.3333C16.4166 19.5175 16.2675 19.6666 16.0833 19.6666H3.91665C3.73248 19.6666 3.58331 19.5175 3.58331 19.3333V17.6883C3.58331 15.97 4.98914 14.6071 6.70747 14.5904C7.27568 14.5843 7.79055 14.3046 8.10622 13.8541C9.55463 15.4637 9.22143 15.0934 9.75205 15.6833C9.88455 15.8304 10.1154 15.8304 10.2479 15.6833C10.7237 15.1543 10.3353 15.586 11.8937 13.8541C12.2085 14.3034 12.7227 14.5843 13.2925 14.5904C15.0108 14.6071 16.4166 15.97 16.4166 17.6883Z" fill="#D6F4FC"/>
        <path d="M12.6283 14.4512C12.6231 14.4622 12.2119 16.333 12.2145 16.3211C12.1603 16.5673 11.8488 16.6465 11.6835 16.4562C10.5894 15.1964 10.7387 15.3607 10.6279 15.2608L11.8937 13.8541C12.0771 14.1158 12.3312 14.3237 12.6283 14.4512Z" fill="#E8F8FC"/>
        <path d="M8.10623 13.8541L9.34206 15.2275L8.31693 16.4423C8.1531 16.6364 7.83777 16.5586 7.7831 16.3105C7.78048 16.2986 7.37685 14.4622 7.37164 14.4512C7.66873 14.3237 7.92289 14.1158 8.10623 13.8541Z" fill="#E8F8FC"/>
        <path d="M14.125 8.7554C14.125 11.0344 12.2772 12.8804 9.99999 12.8804C7.72291 12.8804 5.875 11.0345 5.875 8.7554C5.875 8.68869 5.875 5.84695 5.875 5.92682C5.875 5.74957 6.01354 5.60415 6.1905 5.59407C6.86554 5.55561 7.43387 5.13274 7.6385 4.35903C7.69645 4.13987 7.94875 4.04003 8.14041 4.16112C9.84537 5.23815 11.7879 5.86457 13.8121 5.98536C13.988 5.99586 14.125 6.14169 14.125 6.31799V8.7554Z" fill="#FFEBD2"/>
        <path d="M13.1621 1.58333H10.2854C9.01249 1.58333 7.85916 2.31166 7.30707 3.44416C7.24416 3.57332 7.12249 3.66082 6.98166 3.68957C6.46916 3.79457 6.08333 4.2479 6.08333 4.79165V5.61832C5.96041 5.66748 5.87499 5.78748 5.87499 5.92665V7.9054C5.87499 8.37352 5.26483 8.5571 5.01333 8.17956C4.95608 8.10331 4.88283 7.94656 4.86041 7.83456C4.82279 7.67285 4.83333 7.98577 4.83333 3.54166C4.83333 2.92041 5.33708 2.41666 5.95833 2.41666C6.46287 1.15612 7.68278 0.333329 9.0354 0.333329C11.0048 0.333329 12.2923 0.318412 12.3987 0.371662C12.7984 0.432245 13.1651 0.579453 13.2187 0.609162C13.2318 0.614662 13.3763 0.67962 13.3825 0.685828C13.8312 0.912494 13.6658 1.58583 13.1621 1.58333Z" fill="#4D4E59"/>
        <path d="M11.6304 13.2675C10.6039 13.6972 9.47573 13.7305 8.36957 13.2675C8.42607 13.0331 8.41665 12.8812 8.41665 12.5833L8.4229 12.5679C9.42632 12.9844 10.5717 12.9852 11.5771 12.5679L11.5833 12.5833C11.5833 12.8814 11.5739 13.0331 11.6304 13.2675Z" fill="#FFD6A6"/>
        <path d="M7.58831 15.427C5.93914 15.502 4.62498 16.8633 4.62498 18.5308V19.6666H3.91665C3.73256 19.6666 3.58331 19.5174 3.58331 19.3333V17.6909C3.58331 15.972 4.98969 14.608 6.70856 14.5903C6.9436 14.5879 7.16772 14.5386 7.37164 14.4512C7.37685 14.4622 7.58572 15.4152 7.58831 15.427Z" fill="#E8F8FC"/>
        <path d="M12.4117 15.427C14.0608 15.502 15.375 16.8633 15.375 18.5308V19.6666H16.0833C16.2674 19.6666 16.4166 19.5174 16.4166 19.3333V17.6909C16.4166 15.972 15.0103 14.608 13.2914 14.5903C13.0564 14.5879 12.8322 14.5386 12.6283 14.4512C12.6232 14.4622 12.4143 15.4152 12.4117 15.427Z" fill="#BDEFFC"/>
        <path d="M8.13247 15.6041C8.19456 15.8862 8.26081 16.1866 8.31706 16.4421C8.15322 16.6363 7.83789 16.5587 7.78323 16.3105C7.62302 15.5829 7.37514 14.4586 7.37164 14.4512C7.66873 14.3237 7.92289 14.1158 8.10622 13.8541L8.46206 14.25C8.15622 14.6308 8.02664 15.1246 8.13247 15.6041Z" fill="#F1FAFC"/>
        <path d="M9.09016 5.07841C9.01691 5.66895 8.75791 6.19874 8.32591 6.51978C7.55675 7.09153 7.125 8.01132 7.125 8.96969V10.0054C7.125 10.6232 6.33858 10.7353 6.14304 10.2211C5.96987 9.76561 5.875 9.27157 5.875 8.7554V5.92683C5.875 5.74958 6.01354 5.60416 6.1905 5.59408C6.86742 5.55549 7.43441 5.131 7.63854 4.35896C7.69646 4.13996 7.94837 4.03992 8.13991 4.16087C8.35058 4.29396 8.57979 4.42946 8.82737 4.56346C9.01312 4.66408 9.11616 4.86879 9.09016 5.07841Z" fill="#FFF3E4"/>
        <path d="M10.6279 15.2608L11.25 19.6666H8.74997L9.34205 15.2275L9.75222 15.6831C9.88463 15.8302 10.1153 15.8302 10.2477 15.6831L10.6279 15.2608Z" fill="#FE4F60"/>
        <path d="M9.77747 15.7112L9.24997 19.6666H8.74997L9.34205 15.2275L9.77747 15.7112Z" fill="#E84857"/>
        <path d="M13.3094 14.2571C12.8185 14.2571 12.3731 14.0071 12.118 13.5883C12.0222 13.4311 11.8171 13.3813 11.6599 13.4771C11.5028 13.5728 11.4529 13.7779 11.5487 13.9351C11.7261 14.2264 11.9663 14.4616 12.2459 14.6298L11.9004 16.1976L11.0675 15.2386C11.2187 15.0648 11.1822 14.8617 11.052 14.7484C10.9131 14.6277 10.7026 14.6423 10.5817 14.7812L9.99565 15.4552L8.51932 13.8148C8.64495 13.5736 8.72111 13.3088 8.74286 13.0328C11.6001 13.8738 14.4583 11.7174 14.4583 8.75519V5.99999C14.4583 5.8159 14.3091 5.66665 14.125 5.66665C13.9409 5.66665 13.7916 5.8159 13.7916 5.99999V8.75519C13.7916 10.8459 12.0907 12.5468 9.99999 12.5468C7.90924 12.5468 6.20833 10.8459 6.20833 8.75519V5.92632C7.02095 5.8802 7.71216 5.36999 7.95849 4.44532C9.3464 5.33416 10.9021 5.91003 12.5348 6.13857C12.7178 6.16407 12.8857 6.03644 12.9111 5.85465C12.9366 5.67236 12.8096 5.50386 12.6273 5.47832C10.9648 5.24561 9.34244 4.62341 7.90091 3.60291C7.68053 3.44683 7.37366 3.60562 7.37499 3.87712C7.37503 3.88541 7.37191 4.71211 6.74483 5.08936C6.34829 5.32795 5.9472 5.25091 5.8782 5.25015C5.70783 5.24853 5.56345 5.37636 5.54404 5.54499C5.54037 5.57724 5.54166 5.46745 5.54166 8.21231C5.319 8.09682 5.16666 7.86698 5.16666 7.60248V3.54166C5.16666 3.10512 5.52179 2.74999 5.95833 2.74999C6.09462 2.74999 6.2172 2.66699 6.26783 2.54045C6.72316 1.40216 7.80949 0.666665 9.03549 0.666665H11.8941C13.5378 0.666665 14.875 2.00387 14.875 3.64753V7.60248C14.875 7.78657 15.0242 7.93582 15.2083 7.93582C15.3924 7.93582 15.5416 7.78657 15.5416 7.60248V3.64753C15.5416 1.63629 13.9054 0 11.8941 0H9.03549C7.60549 0 6.33062 0.817915 5.73195 2.10087C5.03495 2.21 4.5 2.81454 4.5 3.54166V7.60248C4.5 8.24019 4.94616 8.77615 5.54504 8.92002C5.60724 10.6225 6.62837 12.0843 8.08332 12.78V12.8679C8.08332 13.2393 7.93849 13.5882 7.67553 13.8504C7.20916 14.3155 6.62145 14.2571 6.69045 14.2571C4.78895 14.2571 3.25 15.7959 3.25 17.6976V19.6666C3.25 19.8507 3.39925 20 3.58333 20C3.76742 20 3.91667 19.8507 3.91667 19.6666V17.6976C3.91667 16.1645 5.15729 14.9238 6.69053 14.9238C6.83641 14.9238 6.98203 14.9083 7.12603 14.8775L7.59116 16.9883C7.65003 17.2556 7.98911 17.3415 8.16836 17.1352L8.82507 16.379L8.41928 19.6253C8.39645 19.808 8.52607 19.9745 8.7087 19.9974C8.8917 20.0202 9.05799 19.8904 9.08082 19.708L9.54978 15.9563C9.57099 15.9798 9.75628 16.1876 9.78003 16.2085C9.91761 16.3293 10.1272 16.317 10.2495 16.1791C10.3154 16.1036 10.1449 16.2996 10.4494 15.9494L10.9192 19.7079C10.942 19.8903 11.1083 20.0202 11.2914 19.9973C11.474 19.9745 11.6036 19.8079 11.5808 19.6252L11.175 16.379L11.8317 17.1351C12.0112 17.3418 12.3501 17.2551 12.4089 16.9883L12.874 14.8774C13.0152 14.9074 13.1608 14.9237 13.3095 14.9237C14.8426 14.9238 16.0833 16.1643 16.0833 17.6976V19.6666C16.0833 19.8507 16.2326 20 16.4166 20C16.6007 20 16.75 19.8507 16.75 19.6666V17.6976C16.75 15.796 15.2112 14.2571 13.3094 14.2571ZM8.09957 16.1976L7.75403 14.6294C7.88111 14.5526 8.00032 14.4613 8.1102 14.3568L8.91836 15.2548L8.09957 16.1976Z" fill="black"/>
    </g>
    <defs>
        <clipPath id="clip0">
            <rect width="20" height="20" fill="white"/>
        </clipPath>
    </defs>
</svg>
